<?xml version="1.0"?>
<svg xmlns:rdf="http://www.w3.org/1999/02/22-rdf-syntax-ns#" xmlns="http://www.w3.org/2000/svg" xmlns:cc="http://creativecommons.org/ns#" xmlns:dc="http://purl.org/dc/elements/1.1/" id="svg2" viewBox="0 0 318.31 462.74" version="1.1">
  <title id="title3441">Sapin (02)</title>
  <g id="layer1" transform="translate(-100.42 -109.57)">
    <g id="g5690">
      <path id="path5610" d="m252.2 456.3h21l8 95h-37l8-95z" fill="#c17d11"/>
      <path id="path5584" d="m194.12 566.3 50-15h37l50 15v5h-137v-5z" fill="#c17d11"/>
      <path id="rect5541" style="block-progression:tb;color:#000000;text-transform:none;text-indent:0" d="m251.28 455.31-0.0625 0.90625-8 95-0.0937 1.0938h39.156l-0.0937-1.0938-8-95-0.0625-0.90625h-22.844zm1.8125 2h19.219l7.8125 93h-34.844l7.8125-93z"/>
      <path id="path5636" d="m197.35 316.48-93.155 151.99 28.192-7.3543 18.386 17.16 25.74-20.837 21.122 29.343 15.65-23.214 23.425 20.106 29.281-21.332 17.16 19.612 26.174-21.691 27.758 29.046 30.449-26.966 22.063 24.514 2.4514-22.063 23.289 4.3081-87.026-152.62h-130.96z" fill="#73d216"/>
      <path id="path4767" style="block-progression:tb;color:#000000;text-transform:none;text-indent:0" d="m196.36 314.73-0.5 0.84375-93.156 152-2.2812 3.6875 4.2188-1.0938 27.25-7.0938 17.688 16.5 1.125 1.0312 1.1562-0.96875 24.281-19.656 20.062 27.844 1.4688 2.0312 1.4062-2.0938 14.531-21.562 21.969 18.812 1.0312 0.90625 1.125-0.8125 27.969-20.406 16.125 18.406 1.125 1.2812 1.3125-1.0625 24.906-20.656 26.656 27.844 1.1562 1.2188 1.25-1.0938 29.188-25.812 20.875 23.219 2.5938 2.9062 0.4375-3.9062 2.25-20.188 21.438 3.9688 3.7188 0.6875-1.875-3.2812-87.031-152.59-0.5-0.90625h-132.97zm1.9688 3.5h128.97l84.656 148.47-19.594-3.625-1.8438-0.34375-0.21875 1.875-2 18.188-19.469-21.625-1.1562-1.2812-1.3125 1.1562-29.156 25.844-26.625-27.812-1.125-1.1875-1.25 1.0312-24.875 20.625-16.031-18.344-1.0312-1.2188-1.3125 0.96875-28.156 20.5-22.375-19.188-1.5-1.2812-1.0938 1.625-14.25 21.125-19.656-27.312-1.0625-1.5-1.4375 1.1562-24.594 19.906-17.25-16.125-0.6875-0.65625-0.9375 0.21875-24.031 6.2812 90.406-147.47z"/>
      <path id="path4765-1" d="m224.32 222.55-66.189 114.77 24.514-11.032 30.643 19.612 30.643-20.837 35.546 30.643 22.063-24.514 19.612 13.483 25.74-20.837 17.16 12.257-66.189-113.54h-73.543z" fill="#73d216"/>
      <path id="path4765" style="block-progression:tb;color:#000000;text-transform:none;text-indent:0" d="m223.3 220.82-0.5 0.875-66.188 114.75-2.7188 4.6875 4.9688-2.2188 23.656-10.656 29.812 19.125 1 0.625 0.9375-0.65625 29.562-20.094 34.5 29.781 1.3125 1.125 1.125-1.2812 21.031-23.375 18.375 12.625 1.0625 0.71875 1-0.8125 24.719-20 16.062 11.469 2.5312-2.2812-66.188-113.56-0.5-0.84375h-75.562zm2.0312 3.5h71.531l61.594 105.62-10.562-7.5312-1.0625-0.78125-1.0312 0.84375-24.719 20-18.562-12.719-1.25-0.875-1.0312 1.1562-20.906 23.219-34.25-29.531-1.0312-0.875-1.0938 0.78125-29.688 20.156-29.688-18.969-0.78125-0.5-0.875 0.375-19.594 8.8125 63-109.19z"/>
      <path id="path4763-7" d="m261.09 113.01-71.092 121.35 24.514-8.5801 19.612 17.16 28.192-20.837 25.74 26.966 22.063-31.869 22.063 14.709-71.092-118.9z" fill="#73d216"/>
      <path id="path4763" style="block-progression:tb;color:#000000;text-transform:none;text-indent:0" d="m261.08 109.57-1.5 2.5625-71.094 121.34-2.4062 4.125 4.5-1.5938 23.562-8.2188 18.844 16.469 1.0312 0.9375 1.1562-0.84375 26.938-19.906 24.688 25.844 1.4688 1.5312 1.2188-1.75 21.094-30.469 20.625 13.75 2.4688-2.3438-71.094-118.88-1.5-2.5625zm0.0312 6.9062 65.562 109.66-15.594-10.375-1.4062-0.96875-1 1.4062-20.844 30.094-24.25-25.406-1.0625-1.0938-1.25 0.90625-27.062 20-18.531-16.219-0.78125-0.6875-0.96875 0.34375-19.969 6.9688 67.156-114.62z"/>
      <path id="path5543" style="block-progression:tb;color:#000000;text-transform:none;text-indent:0" d="m244.06 550.31-0.15625 0.0312-50 15-0.71875 0.21875v6.75h139v-6.75l-0.6875-0.21875-50-15-0.15625-0.0312h-37.281zm0.21875 2h36.844l49.062 14.719v3.2812h-135v-3.2812l49.094-14.719z"/>
    </g>
  </g>
  <metadata>
    <rdf:RDF>
      <cc:Work>
        <dc:format>image/svg+xml</dc:format>
        <dc:type rdf:resource="http://purl.org/dc/dcmitype/StillImage"/>
        <cc:license rdf:resource="http://creativecommons.org/licenses/publicdomain/"/>
        <dc:publisher>
          <cc:Agent rdf:about="http://openclipart.org/">
            <dc:title>Openclipart</dc:title>
          </cc:Agent>
        </dc:publisher>
      </cc:Work>
      <cc:License rdf:about="http://creativecommons.org/licenses/publicdomain/">
        <cc:permits rdf:resource="http://creativecommons.org/ns#Reproduction"/>
        <cc:permits rdf:resource="http://creativecommons.org/ns#Distribution"/>
        <cc:permits rdf:resource="http://creativecommons.org/ns#DerivativeWorks"/>
      </cc:License>
    </rdf:RDF>
  </metadata>
</svg>
